
<global>
amp_veltrack=100.0
ampeg_attack=0.005
ampeg_decay=60.0
ampeg_release=0.5
ampeg_sustain=0.0
cutoff=500
cutoff_cc1=+14000 c
master-volume=-12.0
polyphony=128
</global>

<group>
group_label=FF
loop_end=480000
loop_mode=loop_continuous
loop_start=440000
loop_xfade=24000
loop_xfade_curve=EqP

<region>
end=480000
hivel=127
key=A0
lovel=1
offset=5446
sample=Steinway_ppp_down_FF_A0.opus
volume=20.59
</region>

<region>
end=480000
hivel=127
key=B1
lovel=1
offset=6811
sample=Steinway_ppp_down_FF_B1.opus
volume=23.41
</region>

<region>
end=480000
hivel=127
key=B4
lovel=1
offset=5687
sample=Steinway_ppp_down_FF_B4.opus
volume=17.45
</region>

<region>
end=480000
hivel=127
key=C#1
lovel=1
offset=5288
sample=Steinway_ppp_down_FF_C#1.opus
volume=19.93
</region>

<region>
end=480000
hivel=127
key=C#3
lovel=1
offset=5811
sample=Steinway_ppp_down_FF_C#3.opus
volume=20.01
</region>

<region>
end=480000
hivel=127
key=C#5
lovel=1
offset=5510
sample=Steinway_ppp_down_FF_C#5.opus
volume=23.56
</region>

<region>
end=480000
hivel=127
key=C#7
lovel=1
offset=6080
sample=Steinway_ppp_down_FF_C#7.opus
volume=23.90
</region>

<region>
end=480000
hivel=127
key=C5
lovel=1
offset=6064
sample=Steinway_ppp_down_FF_C5.opus
volume=21.89
</region>

<region>
end=480000
hivel=127
key=C8
lovel=1
offset=6247
sample=Steinway_ppp_down_FF_C8.opus
volume=28.74
</region>

<region>
end=480000
hivel=127
key=D1
lovel=1
offset=5676
sample=Steinway_ppp_down_FF_D1.opus
volume=22.16
</region>

<region>
end=480000
hivel=127
key=E2
lovel=1
offset=6604
sample=Steinway_ppp_down_FF_E2.opus
volume=23.58
</region>

<region>
end=480000
hivel=127
key=F3
lovel=1
offset=5800
sample=Steinway_ppp_down_FF_F3.opus
volume=23.67
</region>

<region>
end=480000
hivel=127
key=F6
lovel=1
offset=5872
sample=Steinway_ppp_down_FF_F6.opus
volume=22.17
</region>

<region>
end=480000
hivel=127
key=G#2
lovel=1
offset=5411
sample=Steinway_ppp_down_FF_G#2.opus
volume=21.40
</region>

<region>
end=480000
hivel=127
key=G#4
lovel=1
offset=5677
sample=Steinway_ppp_down_FF_G#4.opus
volume=14.02
</region>

<region>
end=480000
hivel=127
key=G#6
lovel=1
offset=5915
sample=Steinway_ppp_down_FF_G#6.opus
volume=20.08
</region>

<region>
end=480000
hivel=127
key=G7
lovel=1
offset=6160
sample=Steinway_ppp_down_FF_G7.opus
volume=24.62
</region>

<region>
end=480000
hivel=127
key=C2
lovel=1
offset=6060
sample=Steinway_ppp_down_FF_C2.opus
volume=22.64
</region>

<region>
end=480000
hivel=127
key=D6
lovel=1
offset=6135
sample=Steinway_ppp_down_FF_D6.opus
volume=18.91
</region>

<region>
end=480000
hivel=127
key=E7
lovel=1
offset=6142
sample=Steinway_ppp_down_FF_E7.opus
volume=25.71
</region>

<region>
end=480000
hivel=127
key=F#2
lovel=1
offset=5651
sample=Steinway_ppp_down_FF_F#2.opus
volume=19.70
</region>

<region>
end=480000
hivel=127
key=F#4
lovel=1
offset=5417
sample=Steinway_ppp_down_FF_F#4.opus
volume=21.04
</region>

<region>
end=480000
hivel=127
key=F#6
lovel=1
offset=5810
sample=Steinway_ppp_down_FF_F#6.opus
volume=22.72
</region>

<region>
end=480000
hivel=127
key=G4
lovel=1
offset=6051
sample=Steinway_ppp_down_FF_G4.opus
volume=18.54
</region>

<region>
end=480000
hivel=127
key=A#1
lovel=1
offset=6019
sample=Steinway_ppp_down_FF_A#1.opus
volume=17.04
</region>

<region>
end=480000
hivel=127
key=A#3
lovel=1
offset=5164
sample=Steinway_ppp_down_FF_A#3.opus
volume=19.33
</region>

<region>
end=480000
hivel=127
key=A5
lovel=1
offset=5744
sample=Steinway_ppp_down_FF_A5.opus
volume=19.20
</region>

<region>
end=480000
hivel=127
key=B6
lovel=1
offset=5980
sample=Steinway_ppp_down_FF_B6.opus
volume=22.11
</region>

<region>
end=480000
hivel=127
key=D3
lovel=1
offset=5928
sample=Steinway_ppp_down_FF_D3.opus
volume=22.13
</region>

<region>
end=480000
hivel=127
key=E4
lovel=1
offset=5473
sample=Steinway_ppp_down_FF_E4.opus
volume=17.50
</region>

<region>
end=480000
hivel=127
key=G1
lovel=1
offset=4793
sample=Steinway_ppp_down_FF_G1.opus
volume=20.41
</region>

<region>
end=480000
hivel=127
key=A#5
lovel=1
offset=5931
sample=Steinway_ppp_down_FF_A#5.opus
volume=16.05
</region>

<region>
end=480000
hivel=127
key=A#7
lovel=1
offset=6159
sample=Steinway_ppp_down_FF_A#7.opus
volume=27.72
</region>

<region>
end=480000
hivel=127
key=A2
lovel=1
offset=6031
sample=Steinway_ppp_down_FF_A2.opus
volume=22.52
</region>

<region>
end=480000
hivel=127
key=C7
lovel=1
offset=6040
sample=Steinway_ppp_down_FF_C7.opus
volume=24.50
</region>

<region>
end=480000
hivel=127
key=B3
lovel=1
offset=5665
sample=Steinway_ppp_down_FF_B3.opus
volume=20.10
</region>

<region>
end=480000
hivel=127
key=E1
lovel=1
offset=5790
sample=Steinway_ppp_down_FF_E1.opus
volume=21.18
</region>

<region>
end=480000
hivel=127
key=F5
lovel=1
offset=5774
sample=Steinway_ppp_down_FF_F5.opus
volume=21.71
</region>

<region>
end=480000
hikey=C4
hivel=127
lokey=C4
lovel=1
offset=5498
sample=Steinway_ppp_down_FF_C4.opus
volume=17.55
</region>

<region>
end=480000
hivel=127
key=D#2
lovel=1
offset=6335
sample=Steinway_ppp_down_FF_D#2.opus
volume=22.18
</region>

<region>
end=480000
hivel=127
key=D#4
lovel=1
offset=5513
sample=Steinway_ppp_down_FF_D#4.opus
volume=15.92
</region>

<region>
end=480000
hivel=127
key=D#6
lovel=1
offset=5996
sample=Steinway_ppp_down_FF_D#6.opus
volume=18.26
</region>

<region>
end=480000
hivel=127
key=F2
lovel=1
offset=5903
sample=Steinway_ppp_down_FF_F2.opus
volume=21.12
</region>

<region>
end=480000
hivel=127
key=G6
lovel=1
offset=5824
sample=Steinway_ppp_down_FF_G6.opus
volume=21.43
</region>

<region>
end=480000
hivel=127
key=A7
lovel=1
offset=6392
sample=Steinway_ppp_down_FF_A7.opus
volume=27.14
</region>

<region>
end=480000
hivel=127
key=B0
lovel=1
offset=3289
sample=Steinway_ppp_down_FF_B0.opus
volume=18.63
</region>

<region>
end=480000
hivel=127
key=D5
lovel=1
offset=5749
sample=Steinway_ppp_down_FF_D5.opus
volume=17.94
</region>

<region>
end=480000
hivel=127
key=G3
lovel=1
offset=5811
sample=Steinway_ppp_down_FF_G3.opus
volume=23.01
</region>

<region>
end=480000
hivel=127
key=C#2
lovel=1
offset=5905
sample=Steinway_ppp_down_FF_C#2.opus
volume=22.77
</region>

<region>
end=480000
hivel=127
key=C#4
lovel=1
offset=5741
sample=Steinway_ppp_down_FF_C#4.opus
volume=13.62
</region>

<region>
end=480000
hivel=127
key=C#6
lovel=1
offset=5907
sample=Steinway_ppp_down_FF_C#6.opus
volume=19.22
</region>

<region>
end=480000
hivel=127
key=C1
lovel=1
offset=5219
sample=Steinway_ppp_down_FF_C1.opus
volume=18.46
</region>

<region>
end=480000
hivel=127
key=E6
lovel=1
offset=6116
sample=Steinway_ppp_down_FF_E6.opus
volume=21.20
</region>

<region>
end=480000
hivel=127
key=A4
lovel=1
offset=5427
sample=Steinway_ppp_down_FF_A4.opus
volume=17.55
</region>

<region>
end=480000
hivel=127
key=B5
lovel=1
offset=5861
sample=Steinway_ppp_down_FF_B5.opus
volume=19.54
</region>

<region>
end=480000
hivel=127
key=D2
lovel=1
offset=6256
sample=Steinway_ppp_down_FF_D2.opus
volume=20.78
</region>

<region>
end=480000
hivel=127
key=E3
lovel=1
offset=5395
sample=Steinway_ppp_down_FF_E3.opus
volume=22.73
</region>

<region>
end=480000
hivel=127
key=F7
lovel=1
offset=6133
sample=Steinway_ppp_down_FF_F7.opus
volume=23.26
</region>

<region>
end=480000
hivel=127
key=G#1
lovel=1
offset=6075
sample=Steinway_ppp_down_FF_G#1.opus
volume=20.78
</region>

<region>
end=480000
hivel=127
key=G#3
lovel=1
offset=5372
sample=Steinway_ppp_down_FF_G#3.opus
volume=22.04
</region>

<region>
end=480000
hivel=127
key=G#5
lovel=1
offset=5702
sample=Steinway_ppp_down_FF_G#5.opus
volume=19.72
</region>

<region>
end=480000
hivel=127
key=G#7
lovel=1
offset=6220
sample=Steinway_ppp_down_FF_G#7.opus
volume=27.12
</region>

<region>
end=480000
hivel=127
key=A1
lovel=1
offset=6252
sample=Steinway_ppp_down_FF_A1.opus
volume=20.52
</region>

<region>
end=480000
hivel=127
key=C6
lovel=1
offset=5863
sample=Steinway_ppp_down_FF_C6.opus
volume=23.60
</region>

<region>
end=480000
hivel=127
key=F#1
lovel=1
offset=5409
sample=Steinway_ppp_down_FF_F#1.opus
volume=20.87
</region>

<region>
end=480000
hivel=127
key=F#3
lovel=1
offset=5642
sample=Steinway_ppp_down_FF_F#3.opus
volume=19.95
</region>

<region>
end=480000
hivel=127
key=F#5
lovel=1
offset=5649
sample=Steinway_ppp_down_FF_F#5.opus
volume=23.24
</region>

<region>
end=480000
hivel=127
key=F#7
lovel=1
offset=6141
sample=Steinway_ppp_down_FF_F#7.opus
volume=27.12
</region>

<region>
end=480000
hivel=127
key=A#0
lovel=1
offset=5011
sample=Steinway_ppp_down_FF_A#0.opus
volume=17.69
</region>

<region>
end=480000
hivel=127
key=A#2
lovel=1
offset=5630
sample=Steinway_ppp_down_FF_A#2.opus
volume=20.09
</region>

<region>
end=480000
hivel=127
key=A#4
lovel=1
offset=5661
sample=Steinway_ppp_down_FF_A#4.opus
volume=20.77
</region>

<region>
end=480000
hivel=127
key=A#6
lovel=1
offset=5914
sample=Steinway_ppp_down_FF_A#6.opus
volume=19.88
</region>

<region>
end=480000
hivel=127
key=B2
lovel=1
offset=5842
sample=Steinway_ppp_down_FF_B2.opus
volume=21.94
</region>

<region>
end=480000
hivel=127
key=D7
lovel=1
offset=6222
sample=Steinway_ppp_down_FF_D7.opus
volume=22.96
</region>

<region>
end=480000
hivel=127
key=F4
lovel=1
offset=5866
sample=Steinway_ppp_down_FF_F4.opus
volume=18.30
</region>

<region>
end=480000
hivel=127
key=G5
lovel=1
offset=5861
sample=Steinway_ppp_down_FF_G5.opus
volume=20.60
</region>

<region>
end=480000
hivel=127
key=A3
lovel=1
offset=5820
sample=Steinway_ppp_down_FF_A3.opus
volume=21.55
</region>

<region>
end=480000
hivel=127
key=A6
lovel=1
offset=5872
sample=Steinway_ppp_down_FF_A6.opus
volume=22.60
</region>

<region>
end=480000
hivel=127
key=B7
lovel=1
offset=6252
sample=Steinway_ppp_down_FF_B7.opus
volume=28.06
</region>

<region>
end=480000
hivel=127
key=C3
lovel=1
offset=5606
sample=Steinway_ppp_down_FF_C3.opus
volume=19.22
</region>

<region>
end=480000
hivel=127
key=D#1
lovel=1
offset=5572
sample=Steinway_ppp_down_FF_D#1.opus
volume=20.11
</region>

<region>
end=480000
hivel=127
key=D#3
lovel=1
offset=5570
sample=Steinway_ppp_down_FF_D#3.opus
volume=21.06
</region>

<region>
end=480000
hivel=127
key=D#5
lovel=1
offset=5692
sample=Steinway_ppp_down_FF_D#5.opus
volume=17.56
</region>

<region>
end=480000
hivel=127
key=D#7
lovel=1
offset=5999
sample=Steinway_ppp_down_FF_D#7.opus
volume=25.06
</region>

<region>
end=480000
hivel=127
key=D4
lovel=1
offset=5679
sample=Steinway_ppp_down_FF_D4.opus
volume=17.94
</region>

<region>
end=480000
hivel=127
key=E5
lovel=1
offset=5735
sample=Steinway_ppp_down_FF_E5.opus
volume=20.90
</region>

<region>
end=480000
hivel=127
key=F1
lovel=1
offset=5615
sample=Steinway_ppp_down_FF_F1.opus
volume=20.75
</region>

<region>
end=480000
hivel=127
key=G2
lovel=1
offset=5653
sample=Steinway_ppp_down_FF_G2.opus
volume=19.12
</region>
</group>
